# xmcd
#
# Track frame offsets:
#	150
#	9734
#	28809
#	41931
#	62309
#	77716
#	91061
#	110712
#	121978
#	135038
#	154930
#	167882
#	182236
#	193506
#
# Disc length: 2799 seconds
#
# Revision: 1
# Processed by: cddbd v1.5.2PL0 Copyright (c) Steve Scherf et al.
# Submitted via: audiograbber 1.83.01
#
DISCID=b30aed0e
DTITLE=The English Brothers - Range In The Sky
DYEAR=2006
DGENRE=Cowboy Gospel
TTITLE0=Song Of The Trail
TTITLE1=Cowboys Singin' To Their Maker
TTITLE2=I'm Never Alone On The Lone Prairie
TTITLE3=Simply God's Way
TTITLE4=When The Cowboys Sing Again
TTITLE5=Wandering Shepherd
TTITLE6=Drifter
TTITLE7=Range In The Sky
TTITLE8=Comin' Home To Jesus
TTITLE9=Ayudanos Dios
TTITLE10=There Is A Fountain
TTITLE11=The Master's Call
TTITLE12=Cowboy Campmeeting
TTITLE13=The River
EXTD=
EXTT0=
EXTT1=
EXTT2=
EXTT3=
EXTT4=
EXTT5=
EXTT6=
EXTT7=
EXTT8=
EXTT9=
EXTT10=
EXTT11=
EXTT12=
EXTT13=
PLAYORDER=
